<svg xmlns="http://www.w3.org/2000/svg" width="213" height="96" viewBox="0 0 213 96" xmlns:xlink="http://www.w3.org/1999/xlink">
  <title>
    404-publick
  </title>
  <g>
    <g>
      <g>
        <g>
          <g transform="translate(2118 -5658)">
            <mask id="b">
              <g>
                <use fill="#FFF" xlink:href="#a" transform="translate(-2020.75 5707.63)"/>
              </g>
            </mask>
            <g mask="url(#b)">
              <use fill="#FF5767" xlink:href="#c" transform="translate(-2020.75 5707.63)"/>
            </g>
          </g>
          <g transform="translate(2118 -5658)">
            <mask id="e">
              <g>
                <use fill="#FFF" xlink:href="#d" transform="translate(-2014.32 5720.08)"/>
              </g>
            </mask>
            <g mask="url(#e)">
              <use fill="#FFC500" xlink:href="#f" transform="translate(-2014.32 5720.08)"/>
            </g>
          </g>
        </g>
        <g fill="#5EC3EA">
          <use xlink:href="#g"/>
          <use xlink:href="#h"/>
          <use xlink:href="#i"/>
        </g>
        <g>
          <g transform="translate(2118 -5658)">
            <use fill="#6F568E" xlink:href="#j" transform="translate(-2005.3 5719.63)"/>
          </g>
          <g transform="translate(2118 -5658)">
            <use fill="#634E81" xlink:href="#k" transform="translate(-1999.76 5730.34)"/>
          </g>
          <g transform="translate(2118 -5658)">
            <use fill="#634E81" xlink:href="#l" transform="translate(-2001.46 5729.05)"/>
          </g>
          <g transform="translate(2118 -5658)">
            <use fill="#634E81" xlink:href="#m" transform="translate(-2002.42 5730.58)"/>
          </g>
          <g transform="translate(2118 -5658)">
            <use fill="#634E81" xlink:href="#n" transform="translate(-2004.19 5731.13)"/>
          </g>
          <g transform="translate(2118 -5658)">
            <use fill="#634E81" xlink:href="#o" transform="translate(-2002.47 5729.15)"/>
          </g>
          <g transform="translate(2118 -5658)">
            <use fill="#634E81" xlink:href="#o" transform="translate(-2004 5727)"/>
          </g>
          <g transform="translate(2118 -5658)">
            <use fill="#634E81" xlink:href="#p" transform="translate(-2002.77 5727.32)"/>
          </g>
          <g transform="translate(2118 -5658)">
            <use fill="#634E81" xlink:href="#p" transform="translate(-2003.77 5728.32)"/>
          </g>
          <g transform="translate(2118 -5658)">
            <use fill="#634E81" xlink:href="#q" transform="translate(-2001.36 5730.89)"/>
          </g>
          <g transform="translate(2118 -5658)">
            <use fill="#634E81" xlink:href="#r" transform="translate(-2000.8 5726.25)"/>
          </g>
          <g transform="translate(2118 -5658)">
            <use fill="#634E81" xlink:href="#s" transform="translate(-2001.4 5727.96)"/>
          </g>
          <g transform="translate(2118 -5658)">
            <use fill="#634E81" xlink:href="#t" transform="translate(-1999.81 5727.3)"/>
          </g>
          <g transform="translate(2118 -5658)">
            <use fill="#634E81" xlink:href="#u" transform="translate(-1998.38 5729.76)"/>
          </g>
          <g transform="translate(2118 -5658)">
            <use fill="#634E81" xlink:href="#v" transform="translate(-1999.23 5728.35)"/>
          </g>
          <g transform="translate(2118 -5658)">
            <use fill="#634E81" xlink:href="#w" transform="translate(-1998.78 5726.02)"/>
          </g>
          <g transform="translate(2118 -5658)">
            <use fill="#634E81" xlink:href="#x" transform="translate(-1994.11 5725.13)"/>
          </g>
          <g transform="translate(2118 -5658)">
            <use fill="#634E81" xlink:href="#y" transform="translate(-1994.11 5726.77)"/>
          </g>
          <g transform="translate(2118 -5658)">
            <use fill="#634E81" xlink:href="#z" transform="translate(-1995.37 5728.42)"/>
          </g>
          <g transform="translate(2118 -5658)">
            <use fill="#634E81" xlink:href="#A" transform="translate(-1995.15 5724.96)"/>
          </g>
          <g transform="translate(2118 -5658)">
            <use fill="#634E81" xlink:href="#B" transform="translate(-2003.72 5730)"/>
          </g>
          <g transform="translate(2118 -5658)">
            <use fill="#634E81" xlink:href="#C" transform="translate(-1995.35 5727.18)"/>
          </g>
          <g transform="translate(2118 -5658)">
            <use fill="#634E81" xlink:href="#D" transform="translate(-1996.88 5728.62)"/>
          </g>
          <g transform="translate(2118 -5658)">
            <use fill="#634E81" xlink:href="#E" transform="translate(-1997.36 5727.08)"/>
          </g>
          <g transform="translate(2118 -5658)">
            <use fill="#634E81" xlink:href="#F" transform="translate(-1995.52 5726.32)"/>
          </g>
          <g transform="translate(2118 -5658)">
            <use fill="#634E81" xlink:href="#G" transform="translate(-1993.72 5723.99)"/>
          </g>
          <g transform="translate(2118 -5658)">
            <use fill="#634E81" xlink:href="#G" transform="translate(-1996.74 5725.77)"/>
          </g>
          <g transform="translate(2118 -5658)">
            <use fill="#FFC500" xlink:href="#H" transform="translate(-1993.46 5721.86)"/>
          </g>
        </g>
      </g>
      <g>
        <g transform="translate(2118 -5658)">
          <use fill="#FF5767" xlink:href="#I" transform="translate(-2020.44 5707.62)"/>
        </g>
        <g transform="translate(2118 -5658)">
          <use fill="#FF5767" xlink:href="#J" transform="translate(-2001.49 5707)"/>
        </g>
        <g transform="translate(2118 -5658)">
          <use fill="#0D1013" xlink:href="#K" transform="translate(-1999.67 5708.45)"/>
        </g>
        <g transform="translate(2118 -5658)">
          <use fill="#FF5767" xlink:href="#L" transform="translate(-1998.43 5709.5)"/>
        </g>
        <g transform="translate(2118 -5658)">
          <use fill="#0D1013" xlink:href="#M" transform="translate(-1996.58 5710.64)"/>
        </g>
        <g transform="translate(2118 -5658)">
          <use fill="#0D1013" xlink:href="#N" transform="translate(-2020.09 5697)"/>
        </g>
        <g transform="translate(2118 -5658)">
          <use fill="#0D1013" xlink:href="#O" transform="translate(-2010.44 5697)"/>
        </g>
        <g transform="translate(2118 -5658)">
          <use fill="#6F568E" xlink:href="#P" transform="translate(-2021.01 5700.97)"/>
        </g>
        <g transform="translate(2118 -5658)">
          <use fill="#6F568E" xlink:href="#Q" transform="translate(-2013.43 5700.92)"/>
        </g>
        <g transform="translate(2118 -5658)">
          <use fill="#FFF" xlink:href="#R" transform="translate(-2019.21 5702.68)"/>
        </g>
        <g transform="translate(2118 -5658)">
          <use fill="#0D1013" xlink:href="#S" transform="translate(-2017.5 5704.31)"/>
        </g>
        <g transform="translate(2118 -5658)">
          <use fill="#FFF" xlink:href="#R" transform="translate(-2011.63 5702.64)"/>
        </g>
        <g transform="translate(2118 -5658)">
          <use fill="#0D1013" xlink:href="#T" transform="translate(-2009.92 5704.26)"/>
        </g>
        <g transform="translate(2118 -5658)">
          <use fill="#FFF" xlink:href="#U" transform="translate(-2016.77 5715.63)"/>
        </g>
      </g>
      <g>
        <g transform="translate(2118 -5658)">
          <use fill="#0D1013" xlink:href="#V" transform="translate(-2025 5708.29)"/>
        </g>
      </g>
      <g>
        <g transform="translate(2118 -5658)">
          <use fill="#785690" xlink:href="#W" transform="rotate(90 -3871.32 1852.99)"/>
        </g>
      </g>
    </g>
  </g>
  <defs>
    <path id="a" fill-rule="evenodd" d="M.44538 40.2479C.443969 33.2494.413167 29.939.326695 28.3399.238125 26.7021 0 2.02101 0 1.21678 0 .415277.648984.0027774.653368 0h.000038L17.7897 15.1381l-2.9885 12.4676c-2.3212 6.8098-3.3702 10.9234-3.7663 12.6422H.44538z"/>
    <path id="c" fill-rule="evenodd" d="M.65342 0S0 .412546 0 1.21677C0 2.02099.238155 26.7021.326725 28.3399c.08854 1.6379.002817 11.0133 7.698425 11.6346 7.69565.6212 33.31005-.0104 33.31005-.0104s1.1603.0292.7252-.4979c-.3565-.4321-22.5429-6.3821-22.5429-6.3821s-.7712-4.3488-4.7163-5.4784l2.9366-12.2558L.65342 0z"/>
    <path id="d" fill-rule="evenodd" d="M0 32.9229c1.42477-.3228 2.71048-.691 2.69754-.9665-.13274-2.8273 1.71098-3.2196 1.71098-3.2196s.79541-4.2705 3.96928-13.5818l2.9885-12.46757L8.3241 0H0v32.9229z"/>
    <path id="f" fill-rule="evenodd" d="M.845801 0c0 .282392.493659 19.3721.493659 19.3721s-3.66608 15.92 1.13196 16.0581c5.12968.1477 25.76058-8.736 32.58278-8.9237l-4.4493-5.3836L13.5041 2.0897.845801 0z"/>
    <path id="g" d="M69 75.3967H57.766v19.3276H38.5532V75.3967H0V61.6824L39.6383 1.46711H57.766V60.0877H69v15.309zm-30.4468-15.309V41.9083c.0425-1.0631.0851-2.2538.1277-3.5721.0425-1.3183.0851-2.6791.1276-4.0824.0851-1.4033.1489-2.7428.1915-4.0186.0851-1.2757.1489-2.3814.1915-3.3169.0851-.9781.1489-1.6798.1915-2.105h-.5745c-.7659 1.786-1.6383 3.6784-2.617 5.6771-.9362 1.9986-2.0213 3.9973-3.2553 5.996L17.3617 60.0877h21.1915z"/>
    <path id="h" d="M139.723 48.0957c0 7.5269-.595 14.2458-1.787 20.1568-1.149 5.911-3.021 10.9289-5.617 15.0538-2.553 4.1249-5.872 7.2718-9.957 9.4405C118.319 94.9156 113.426 96 107.681 96c-5.404 0-10.1065-1.0844-14.1065-3.2532-4-2.1687-7.3192-5.3156-9.9575-9.4405-2.6383-4.1249-4.617-9.1428-5.9361-15.0538-1.2766-5.911-1.9149-12.6299-1.9149-20.1568 0-7.5269.5744-14.2671 1.7234-20.2206 1.1915-5.9535 3.0638-10.9927 5.617-15.1176C85.6596 8.63256 88.9574 5.48571 93 3.31694 97.0426 1.10565 101.936 0 107.681 0c5.362 0 10.042 1.08439 14.042 3.25316s7.341 5.31561 10.022 9.44054c2.681 4.1249 4.681 9.1641 6 15.1176s1.978 12.7149 1.978 20.2844zm-44.2975 0c0 10.6312.9149 18.6259 2.7447 23.984 1.8298 5.3582 4.9998 8.0372 9.5108 8.0372 4.425 0 7.596-2.6578 9.51-7.9734 1.958-5.3156 2.937-13.3315 2.937-24.0478 0-10.6738-.979-18.6897-2.937-24.0479-1.914-5.4006-5.085-8.101-9.51-8.101-2.255 0-4.17.6804-5.745 2.0412-1.532 1.3608-2.7871 3.3808-3.7658 6.0598-.9787 2.6791-1.6808 6.0386-2.1064 10.0784-.4255 3.9974-.6383 8.6539-.6383 13.9695z"/>
    <path id="i" d="M213 75.3967h-11.234v19.3276h-19.213V75.3967H144V61.6824l39.638-60.21529h18.128V60.0877H213v15.309zm-30.447-15.309V41.9083c.043-1.0631.085-2.2538.128-3.5721.042-1.3183.085-2.6791.128-4.0824.085-1.4033.148-2.7428.191-4.0186.085-1.2757.149-2.3814.191-3.3169.086-.9781.149-1.6798.192-2.105h-.574c-.766 1.786-1.639 3.6784-2.618 5.6771-.936 1.9986-2.021 3.9973-3.255 5.996l-15.574 23.6013h21.191z"/>
    <path id="j" fill-rule="evenodd" d="M0 12.8652l1.55005-6.49997c3.68319.62906 8.15317-.35847 9.35275-2.55308 0 0-.838-2.1211-.1439-3.589964l1.609 1.268334S12.7973.448297 14.0716 0c0 0 .574 1.09294.0931 2.21429L16.3 2.00128s-.381 2.00499-2.7582 2.58652C12.1568 10.8658 5.66998 13.0762 0 12.8652z"/>
    <path id="k" fill-rule="evenodd" d="M.0741888.837168C-.0850061.563897.0204416.22048.309704.0700779.598966-.0802958.96253.0193039 1.1217.292575c.15922.27327.05377.616687-.23546.767065-.289291.15037-.652856.05077-.8120512-.222472z"/>
    <path id="l" fill-rule="evenodd" d="M.0990635 1.00637C-.0957553.754564.0056288.371387.325472.150528c.319903-.2208588.737158-.1957542.932008.056055.19481.251837.09346.635014-.22644.855847-.319875.22086-.737128.19575-.9319765-.05606z"/>
    <path id="m" fill-rule="evenodd" d="M.0593588.669726C-.0680091.451127.0163491.176359.247771.0560602.479162-.0642387.769996.0154522.897364.234052 1.0247.452651.940374.727391.708952.847689.477561.968017.186697.888326.0593588.669726z"/>
    <path id="n" fill-rule="evenodd" d="M.0519381.586004C-.0595013.39474.0142972.154312.216769.0490643.41927-.0562114.673768.0135111.785208.204775c.111409.191293.03764.431693-.164861.536969C.417846.847019.163377.777268.0519381.586004z"/>
    <path id="o" fill-rule="evenodd" d="M.0296794.334849C-.0340045.225564.00817457.08818.123885.0280306.239596-.0321189.384998.00772657.448682.117012c.063714.109314.021505.24667-.094176.306847C.238765.484009.0933633.444163.0296794.334849z"/>
    <path id="p" fill-rule="evenodd" d="M.0445155.502291C-.0509955.338334.0122435.132272.185824.0420483.359376-.0481759.577509.0115782.67302.175535.768531.339492.705292.545553.53174.635777.358159.726002.140027.666247.0445155.502291z"/>
    <path id="q" fill-rule="evenodd" d="M.0353575.921469C-.0919806.702869.148606.227547.375608.099934c.379938-.213545.789422-.0505764.916792.168023.12733.2186-.375998.711176-.607419.831503-.231392.1203-.522256.04061-.6496235-.177991z"/>
    <path id="r" fill-rule="evenodd" d="M.0442969.96903C-.0972196.726144.125985.220945.352542.0925131.73162-.122387 1.15982.0726327 1.30131.315518c.14151.242885-.35037.755172-.581792.875472-.231391.1203-.533705.02092-.6752211-.22196z"/>
    <path id="s" fill-rule="evenodd" d="M.0276992.477051C-.0678119.313094.0916204.114771.383789.0340912.675958-.0466164.990255.0208753 1.0858.184832c.09551.163957-.06393.362281-.356124.44296C.437507.7085.12324.641008.0276992.477051z"/>
    <path id="t" fill-rule="evenodd" d="M.0593597.669726C-.0680081.451127.0163501.176387.247742.0560602.479163-.0642387.769997.0154522.897365.234052 1.0247.452651.940375.727391.708953.847718.477562.968017.186698.888326.0593597.669726z"/>
    <path id="u" fill-rule="evenodd" d="M1.43411.436886c.00872.24938-.43371.570204-.697257.586834C.295752 1.05157.00880363.731054.00008306.481673-.00866717.232293.676313.0084974.940273.00025155 1.20429-.0079943 1.42539.187506 1.43411.436886z"/>
    <path id="v" fill-rule="evenodd" d="M.00935938.707488C-.0555407.465619.230903.080493.441947.0212755.79519-.0778159 1.10346.188056 1.16839.429925c.0649.241869-.441778.571895-.655136.622985C.299867 1.10402.0742891.949357.00935938.707488z"/>
    <path id="w" fill-rule="evenodd" d="M.0737019.835647C-.0849294.563336.0209632.220682.310196.0703084.599487-.0800935.962607.0187436 1.12121.291054c.15866.272311.05277.614965-.236495.765336-.289262.15038-.652352.05154-.8110131-.220743z"/>
    <path id="x" fill-rule="evenodd" d="M.0589593.668514C-.0679338.450677.0167506.176559.248172.0562317.479593-.0640673.770071.0150025.896965.23284 1.02392.450677.939203.724795.707782.845122.47636.965421.185882.886351.0589593.668514z"/>
    <path id="y" fill-rule="evenodd" d="M.0294903.334257C-.033986.225338.00840073.0882653.124082.0281158.239793-.0320336.385046.00750123.448493.11642c.063476.108918.02109.245991-.094592.306141C.238191.48271.0929369.443175.0294903.334257z"/>
    <path id="z" fill-rule="evenodd" d="M.0440762.500932C-.0509306.337822.0127237.132467.186275.0422428.359856-.0479814.577573.0110668.67258.174176c.095037.163082.031353.368465-.142198.45869C.35683.72309.139113.664013.0440762.500932z"/>
    <path id="A" fill-rule="evenodd" d="M.0527964.598682C-.060838.403605.0150073.158094.222254.0503613.429501-.0573712.689635.0134245.803299.208501c.113635.195104.03779.440588-.169457.54832C.426595.864582.16646.793758.0527964.598682z"/>
    <path id="B" fill-rule="evenodd" d="M.98475.147732c.09002.16599-.051374.404329-.315838.532366C.404476.808134.117143.777382.0271189.611392-.0629047.44543.0785228.207091.342958.0790263.607393-.0489819.894756-.0182295.98475.147732z"/>
    <path id="C" fill-rule="evenodd" d="M1.08519.183707c.09519.163392-.06442.361405-.356505.442282C.436635.706867.122724.639996.0275395.476604-.0676748.31324.0919353.115227.383985.0343502c.29208-.0809053.606021-.0140066.701205.1493568z"/>
    <path id="D" fill-rule="evenodd" d="M.0589725.668505C-.0679504.450668.0167638.17655.248185.0562509.479577-.0640763.770055.0149935.896978.232831 1.0239.450668.939187.724814.707765.845113.476373.965412.185866.886342.0589725.668505z"/>
    <path id="E" fill-rule="evenodd" d="M1.16413.353631C1.22861.594765.941841.97927.730827 1.0386.377733 1.13792.0701106.873204.00562578.632069-.058859.390935.447913.0611009.661211.00984674.87448-.0414074 1.09967.112496 1.16413.353631z"/>
    <path id="F" fill-rule="evenodd" d="M.0292465.333513C-.0339331.225074.0086316.0883682.124342.0282188.240023-.0319307.38507.00723703.448249.115676c.06318.108438.020586.245116-.095095.305265C.237443.481119.0924262.441951.0292465.333513z"/>
    <path id="G" fill-rule="evenodd" d="M.0292465.333513C-.0339331.225074.0086316.0883682.124342.0282188.240023-.0319307.38507.00723703.448249.115676c.06318.108438.020586.245116-.095095.305293C.237443.481119.0924262.441951.0292465.333513z"/>
    <path id="H" fill-rule="evenodd" d="M.0234554 1.01131c.1101936.44183.5774856.71532 1.0437146.6109.46622-.10443.75483-.54725.64464-.989083-.1102-.44183-.57749-.7153265-1.043715-.610898-.466224.104429-.7548332.547247-.6446396.989081z"/>
    <path id="I" fill-rule="evenodd" d="M18.5411 15.232c2.5361.0847 5.3231-.1546 5.5315-.2203.0011-.0004.6367-3.1811.5666-8.59282-.07-5.40605-5.8839-5.984731-14.2447-6.159334C7.19708.192789 0 0 0 0s.902371 4.27776 2.5933 8.32754C5.27449 14.7489 16.4967 15.1637 18.5411 15.232z"/>
    <path id="J" fill-rule="evenodd" d="M3.59366.0854423C4.82623.467434 5.33137 2.02146 4.72194 3.55646c-.60944 1.535-2.10264 2.46969-3.33521 2.08773C.154165 5.26219-.350976 3.70816.258456 2.17317.867887.638168 2.36112-.296549 3.59366.0854423z"/>
    <path id="K" fill-rule="evenodd" d="M1.64459.0726822C2.0686.304865 2.1244 1.02381 1.76925 1.6785c-.35517.6547-.986814.99724-1.4108.76506-.4240451-.23218-.479839-.95112-.124668-1.60585C.588952.183013 1.22057-.1595 1.64459.0726822z"/>
    <path id="L" fill-rule="evenodd" d="M4.57978.343872c.89863.676498.73131 2.125648-.37371 3.236808C3.10105 4.69183 1.47677 5.0442.578163 4.3677c-.898634-.67649-.731282-2.12565.37371-3.2368C2.05689.0197427 3.68117-.332598 4.57978.343872z"/>
    <path id="M" fill-rule="evenodd" d="M1.93856.167665c.31638.296624.17679.884905-.31174 1.313945-.48853.42906-1.141033.5364-1.457406.23978C-.146959 1.42476-.0074003.83651.48113.407444.969689-.0215943 1.62219-.12896 1.93856.167665z"/>
    <path id="N" fill-rule="evenodd" d="M2.70625.0097453C3.49018-.0496982 4.07574.163028 4.19572.641654c.11998.478596-.4309.951656-.90101 1.083536-.47008.13188-1.63095 1.11952-1.92962 1.35732-.29866.23777-.907799.20284-1.180866-.05487-.2730366-.25771-.2085221-.77313-.026784-1.12666C.603613 1.03316 1.53802.0983316 2.70625.0097453z"/>
    <path id="O" fill-rule="evenodd" d="M1.47386.00182064C.684296-.0235664.107315.216834.0107064.704864-.0859022 1.19289.490427 1.64574.968694 1.75804 1.44696 1.87032 2.66093 2.81535 2.97244 3.042c.31151.2267.921.1646 1.18217-.1074.26117-.27197.17082-.789-.02913-1.13756C3.63461.941367 2.65049.0396612 1.47386.00182064z"/>
    <path id="P" fill-rule="evenodd" d="M5.31278.00699994C8.09422.148761 10.2285 2.40708 10.0798 5.05111c-.14862 2.64404-2.52394 4.67252-5.30541 4.53076C1.99294 9.44013-.141347 7.18179.00731824 4.53775.155983 1.89375 2.53133-.134761 5.31278.00699994z"/>
    <path id="Q" fill-rule="evenodd" d="M5.31284.0069982C8.09429.148759 10.2285 2.40764 10.0799 5.05232c-.14877 2.64472-2.52412 4.67373-5.3056 4.532C1.99286 9.44256-.1414 7.18368.007324 4.53896.156019 1.89428 2.5314-.134763 5.31284.0069982z"/>
    <path id="R" fill-rule="evenodd" d="M3.41505.0044985C5.20291.0956264 6.5748 1.54769 6.4792 3.24783c-.0956 1.70011-1.62247 3.00445-3.41034 2.91332C1.281 6.07005-.0908921 4.61796.0047079 2.91785.100308 1.21774 1.62718-.0866294 3.41505.0044985z"/>
    <path id="S" fill-rule="evenodd" d="M1.61265.00212568C2.45695.0451622 3.10482.730556 3.0597 1.53303c-.04514.80244-.76616 1.41809-1.61046 1.37505C.604951 2.86504-.0429221 2.17965.00222314 1.37721.0473388.574732.768358-.0409109 1.61265.00212568z"/>
    <path id="T" fill-rule="evenodd" d="M1.61265.00212568C2.45695.0451622 3.10482.730556 3.0597 1.53303c-.04514.80244-.76616 1.41809-1.61046 1.37508C.604951 2.86507-.0429221 2.17965.00222314 1.3772.0473388.574732.768358-.0409109 1.61265.00212568z"/>
    <path id="U" fill-rule="evenodd" d="M11.9951 6.98416c-4.21652-.67048-6.54921-1.56021-7.56439-2.0309-1.62419-.75306-2.76709-1.82558-3.39693-3.18784C.745707 1.14235.590991.246236.589478.237284.563287.0833243.410973-.0211325.249346.00363326.0876299.028512-.0222671.173492.0038353.327452.0105389.366959.17178 1.30295.490823 1.993c.150801.32613.32806.63685.531357.93178l-.00005-.00003-.132237 3.18434L4.17096 5.461l1.1682 2.80839 3.17699-1.39073L10.174 9.51191l2.2326-1.89796c.688.08831 1.2647.12561 1.2647.12561s.0409-.16506.0714-.29089c.0289-.11894.0634-.27155.0634-.27155s-.8213-.03558-1.811-.19296z"/>
    <path id="V" fill-rule="evenodd" d="M4.6979 16.5079l-3.16551-2.4032 2.47649-2.4811L.797339 8.94849 4.24256 5.87556 0 2.91544 4.5581 0l.1398 16.5079z"/>
    <path id="W" fill-rule="evenodd" d="M4.12044 2.70763s.52995 1.79812.08342 2.76525C2.8888 5.12546 2.14785 3.59495 2.14785 3.59495S.675765 5.17241.0820252 5.3696C-.732527-1.76653 4.73871-.879213 6.79472 2.77336c-.88423.18216-1.80085.15962-2.67428-.06573z"/>
  </defs>
</svg>
